<?xml version="1.0" encoding="UTF-8"?>
<svg width="232px" height="232px" viewBox="0 0 232 232" version="1.1" xmlns="http://www.w3.org/2000/svg" xmlns:xlink="http://www.w3.org/1999/xlink">
    <!-- Generator: Sketch 43.2 (39069) - http://www.bohemiancoding.com/sketch -->
    <title>Artboard Copy</title>
    <desc>Created with Sketch.</desc>
    <defs>
        <linearGradient x1="-10.3993517%" y1="-21.0729721%" x2="119.093875%" y2="116.036403%" id="linearGradient-1">
            <stop stop-color="#FFB822" offset="0%"></stop>
            <stop stop-color="#F8B500" offset="100%"></stop>
        </linearGradient>
    </defs>
    <g id="Page-1" stroke="none" stroke-width="1" fill="none" fill-rule="evenodd">
        <g id="Artboard-Copy" fill-rule="nonzero" fill="url(#linearGradient-1)">
            <path d="M36.5621667,69 L32.7316667,53.3333333 L199.237,53.3333333 L195.390833,69 L36.5621667,69 L36.5621667,69 Z M48.9466667,37.6666667 L45.5078333,22 L186.460833,22 L183.022,37.6666667 L48.9466667,37.6666667 L48.9466667,37.6666667 Z M210,163 L22,163 L37.6666667,210 L194.333333,210 L210,163 Z M46.3146667,147.333333 L39.9383333,100.333333 L191.991167,100.333333 L185.419,147.333333 L201.242333,147.333333 L210,84.6666667 L22,84.6666667 L30.4991667,147.333333 L46.3146667,147.333333 L46.3146667,147.333333 Z M68.1226667,116.039167 C67.7388333,111.691667 71.4048333,108.166667 76.2928333,108.166667 C81.1886667,108.166667 85.3403333,111.683833 85.5753333,116.031333 C85.8103333,120.378833 82.1443333,123.903833 77.3973333,123.903833 C72.6581667,123.903833 68.4986667,120.386667 68.1226667,116.039167 L68.1226667,116.039167 Z M127.460167,114.2845 L113.172167,135.277833 L98.9703333,125.0005 L76.8333333,147.333333 L155.166667,147.333333 L127.460167,114.2845 L127.460167,114.2845 Z" id="Shape"></path>
        </g>
    </g>
</svg>