<?xml version="1.0" encoding="UTF-8"?>
<svg width="232px" height="232px" viewBox="0 0 232 232" version="1.1" xmlns="http://www.w3.org/2000/svg" xmlns:xlink="http://www.w3.org/1999/xlink">
    <!-- Generator: Sketch 43.2 (39069) - http://www.bohemiancoding.com/sketch -->
    <title>Artboard</title>
    <desc>Created with Sketch.</desc>
    <defs></defs>
    <g id="Page-1" stroke="none" stroke-width="1" fill="none" fill-rule="evenodd">
        <g id="Artboard" fill-rule="nonzero" fill="#000000">
            <g id="iconmonstr-picture-17" transform="translate(22.000000, 22.000000)">
                <path d="M14.5621667,47 L10.7316667,31.3333333 L177.237,31.3333333 L173.390833,47 L14.5621667,47 L14.5621667,47 Z M26.9466667,15.6666667 L23.5078333,0 L164.460833,0 L161.022,15.6666667 L26.9466667,15.6666667 L26.9466667,15.6666667 Z M188,141 L0,141 L15.6666667,188 L172.333333,188 L188,141 Z M24.3146667,125.333333 L17.9383333,78.3333333 L169.991167,78.3333333 L163.419,125.333333 L179.242333,125.333333 L188,62.6666667 L0,62.6666667 L8.49916667,125.333333 L24.3146667,125.333333 L24.3146667,125.333333 Z M46.1226667,94.0391667 C45.7388333,89.6916667 49.4048333,86.1666667 54.2928333,86.1666667 C59.1886667,86.1666667 63.3403333,89.6838333 63.5753333,94.0313333 C63.8103333,98.3788333 60.1443333,101.903833 55.3973333,101.903833 C50.6581667,101.903833 46.4986667,98.3866667 46.1226667,94.0391667 L46.1226667,94.0391667 Z M105.460167,92.2845 L91.1721667,113.277833 L76.9703333,103.0005 L54.8333333,125.333333 L133.166667,125.333333 L105.460167,92.2845 L105.460167,92.2845 Z" id="Shape"></path>
            </g>
        </g>
    </g>
</svg>